<svg width="24" height="24" viewBox="0 0 24 24" fill="none" xmlns="http://www.w3.org/2000/svg">
<circle cx="12" cy="12" r="12" fill="#F56C6C"/>
<path d="M14.2996 17.284C14.2996 18.5383 13.2791 19.5588 12.0248 19.5588C10.7705 19.5588 9.75 18.5383 9.75 17.284C9.75 16.0297 10.7705 15.0092 12.0248 15.0092C13.2791 15.0092 14.2996 16.0297 14.2996 17.284ZM10.0133 5.71654L10.4 13.4509C10.4182 13.8141 10.718 14.0992 11.0816 14.0992H12.968C13.3317 14.0992 13.6314 13.8141 13.6496 13.4509L14.0363 5.71654C14.0558 5.32672 13.745 5 13.3547 5H10.6949C10.3046 5 9.99383 5.32672 10.0133 5.71654Z" fill="white"/>
</svg>
