<svg width="24" height="24" viewBox="0 0 24 24" fill="none" xmlns="http://www.w3.org/2000/svg">
    <ellipse cx="11.5325" cy="11.7239" rx="11.5325" ry="11.7239" fill="#E6A23C" />
    <g clip-path="url(#clip0_4182_71499)">
        <path d="M16.7401 5.34941L17.0808 5.69575C17.3454 5.9648 17.3454 6.39987 17.0808 6.66606L16.2615 7.50184L14.9635 6.18233L15.7828 5.34941C16.0475 5.08036 16.4754 5.08036 16.7373 5.34941H16.7401ZM10.2305 10.9967L14.009 7.15265L15.307 8.47215L11.5257 12.3133C11.444 12.3963 11.3427 12.4564 11.2329 12.4879L9.58576 12.9659L10.056 11.2915C10.0869 11.1799 10.1461 11.0768 10.2277 10.9938L10.2305 10.9967ZM14.8283 4.3791L9.27324 10.0235C9.02828 10.2725 8.8509 10.5788 8.75799 10.9137L7.95274 13.7759C7.88517 14.0164 7.94992 14.274 8.12449 14.4514C8.29905 14.6289 8.55245 14.6947 8.78896 14.626L11.6045 13.8074C11.9368 13.7101 12.238 13.5298 12.4802 13.2836L18.0353 7.63923C18.8264 6.83493 18.8264 5.52974 18.0353 4.72544L17.6946 4.3791C16.9034 3.5748 15.6195 3.5748 14.8283 4.3791ZM6.80118 5.49539C5.43282 5.49539 4.32349 6.62313 4.32349 8.01419V15.7996C4.32349 17.1906 5.43282 18.3184 6.80118 18.3184H14.4595C15.8279 18.3184 16.9372 17.1906 16.9372 15.7996V12.5938C16.9372 12.2131 16.6359 11.9069 16.2615 11.9069C15.887 11.9069 15.5857 12.2131 15.5857 12.5938V15.7996C15.5857 16.4321 15.0817 16.9445 14.4595 16.9445H6.80118C6.17894 16.9445 5.67495 16.4321 5.67495 15.7996V8.01419C5.67495 7.38163 6.17894 6.86928 6.80118 6.86928H9.9546C10.3291 6.86928 10.6303 6.56302 10.6303 6.18233C10.6303 5.80165 10.3291 5.49539 9.9546 5.49539H6.80118Z" fill="white" />
    </g>
    <defs>
        <clipPath id="clip0_4182_71499">
            <rect width="14.4157" height="14.6548" fill="white" transform="translate(4.32349 3.66357)" />
        </clipPath>
    </defs>
</svg>
