<svg width="96" height="96" viewBox="0 0 96 96" fill="none" xmlns="http://www.w3.org/2000/svg">
<circle cx="48" cy="48" r="48" fill="#00B212"/>
<path d="M64.0825 58.545L74.7825 69.25L71.25 72.785L60.545 62.0825C56.5602 65.2738 51.6052 67.0086 46.5 67C42.3084 67.0019 38.1996 65.8325 34.6371 63.6239C31.0745 61.4152 28.1999 58.2551 26.3375 54.5H41.5L38.24 59.9325C40.7801 61.2939 43.6181 62.0043 46.5 62C51.0511 62.0072 55.4247 60.2353 58.6875 57.0625L59.0625 56.6875C62.2353 53.4247 64.0072 49.0511 64 44.5C64 42.7625 63.7475 41.085 63.275 39.5H68.4425C68.8075 41.1075 69 42.7825 69 44.5C69.0087 49.6052 67.2738 54.5602 64.0825 58.545ZM66.6625 34.5H51.5L54.76 29.0675C52.2199 27.7061 49.3819 26.9957 46.5 27C43.7738 26.9988 41.0851 27.6346 38.6482 28.8567C36.2114 30.0788 34.0938 31.8534 32.4643 34.0389C30.8348 36.2245 29.7386 38.7606 29.263 41.445C28.7874 44.1293 28.9456 46.8876 29.725 49.5H24.5575C24.1861 47.8593 23.9991 46.1822 24 44.5C24 32.0675 34.0675 22 46.5 22C50.6917 21.9979 54.8006 23.1671 58.3632 25.3757C61.9258 27.5844 64.8003 30.7447 66.6625 34.5Z" fill="white"/>
</svg>
